<?xml version="1.0" encoding="UTF-8"?>
<svg width="338px" height="220px" viewBox="0 0 338 220" version="1.1" xmlns="http://www.w3.org/2000/svg" xmlns:xlink="http://www.w3.org/1999/xlink">
    <title>081F1FDF-667F-47F9-AEFA-7CA0F79ED8BF</title>
    <g id="1---Login" stroke="none" stroke-width="1" fill="none" fill-rule="evenodd">
        <g id="Login-With-Azure" transform="translate(-551.000000, -420.000000)">
            <g id="illustration" transform="translate(551.000000, 420.000000)">
                <path d="M93.4180269,5 L149.582531,5 C153.662529,5 157,8.3605873 157,12.4695312 L157,65.163832 C157,65.5085364 156.804891,65.8021527 156.489373,65.9340836 C156.17274,66.0660144 155.828791,65.9969613 155.586857,65.7533103 L142.947168,53.0245104 L93.4180269,53.0245104 C89.3380285,53.0245104 86,49.6628003 86,45.5544178 L86,12.4695312 C86,8.3605873 89.3380285,5 93.4180269,5" id="Fill-2" fill="#D2E9F2"></path>
                <path d="M49.6160707,216 C49.6160707,216 20.0373308,198.087236 27.2115295,167.153612 C27.2115295,167.153612 27.4213832,166.361106 26.7341822,166.23381 C26.0464217,166.104823 11.3493874,189.900829 31.8853912,211.683183 L49.6160707,216 Z M41.2801219,204.230139 C41.2801219,204.230139 13.5990191,171.006304 45.8929861,142.235031 C45.8929861,142.235031 16.8940021,109.711327 35.3482571,72.8094103 C53.8019526,35.9069302 89.3914622,39.0347077 117.731785,46.5401346 C146.071549,54.0455615 182.9795,50.2925664 211.318704,20.8960765 C239.659027,-8.50041348 272.612774,-2.24598496 285.135164,11.5144337 C297.656995,25.2742891 300.951978,53.4203439 287.111706,81.5658355 C273.271994,109.71189 281.179841,127.849395 293.043571,141.609814 C304.906741,155.369669 306.224622,193.671848 277.884299,204.230139 L41.2801219,204.230139 L41.2801219,204.230139 Z" id="Fill-3" fill="#EAECF5"></path>
                <path d="M206.083799,132.206383 C240.190397,128.977356 233.833417,164.376974 211.839935,186.693611 C207.80913,190.783412 201.3811,196.38013 193.472219,203 L125,203 C151.491425,165.656898 182.659255,134.424618 206.083799,132.206383" id="Fill-4" fill="#B7D2FB"></path>
                <path d="M151,203 C184.374491,169.549048 214.632397,147.404104 214.818213,147.267455 C215.429068,146.816066 216.286935,146.949915 216.734784,147.564274 C217.182633,148.179194 217.049669,149.04333 216.438814,149.494159 C216.258006,149.627447 187.280781,170.834331 154.859291,203 L151,203" id="Fill-5" fill="#609DF6"></path>
                <path d="M182.124334,51.775674 C196.130737,47.3650186 196.631745,62.7068908 189.409387,73.9934898 C182.561527,84.6946877 152.497105,117.914797 145.690109,135 L142,133.035045 C143.993398,107.540438 164.192712,57.4214919 182.124334,51.775674" id="Fill-6" fill="#8EBAF8"></path>
                <path d="M144,133.426543 C152.609269,95.8222438 187.84529,56.3344555 187.963756,56.1995578 C188.18216,55.9540326 188.557208,55.93202 188.802001,56.1504528 C189.04567,56.3694499 189.067566,56.7464863 188.850285,56.9925759 C188.731258,57.1269093 153.453128,96.6592872 145.070685,134 L144,133.426543" id="Fill-7" fill="#2E7EF2"></path>
                <path d="M190.927783,74.1476006 C204.908802,72.3812511 202.765899,86.8677818 194.018389,96.2395739 C186.770517,104.004677 159.832854,124.916843 146.923568,140 L141,137.780439 C149.647158,113.487951 174.423313,76.2327109 190.927783,74.1476006" id="Fill-8" fill="#B7D2FB"></path>
                <path d="M143,138.605762 C159.06237,107.463164 193.966182,80.2187109 194.092275,80.1195913 C194.33665,79.9280721 194.689265,79.9711919 194.880636,80.2159109 C195.07145,80.46063 195.029047,80.8145486 194.785229,81.0066278 C194.660252,81.1051875 159.98073,108.173801 144.041663,139 L143,138.605762" id="Fill-9" fill="#2E7EF2"></path>
                <path d="M13.7221265,220 C15.1020731,220 16.2303561,218.867154 16.2303561,217.481627 L16.2303561,217.271716 C16.2303561,215.886189 15.1020731,214.753343 13.7221265,214.753343 C12.3427403,214.753343 11.2133364,215.886189 11.2133364,217.271716 L11.2133364,217.481627 C11.2133364,218.867154 12.3427403,220 13.7221265,220 Z M11.7626247,203 L327.237375,203 C329.305614,203 331,204.700675 331,206.777278 L331,206.77784 C331,208.855005 329.306735,210.555681 327.237375,210.555681 L314.542651,210.555681 C313.392508,210.555681 312.451992,211.500563 312.451992,212.653668 C312.451992,213.808461 313.392508,214.753343 314.542651,214.753343 L319.186379,214.753343 C320.623496,214.753343 321.799982,215.934024 321.799982,217.37639 C321.799982,218.819319 320.624057,220 319.186379,220 L20.22839,220 C18.7912725,220 17.6153472,218.819882 17.6153472,217.37639 C17.6153472,215.934024 18.7912725,214.753343 20.22839,214.753343 L23.8862015,214.753343 C25.0357834,214.753343 25.9762994,213.808461 25.9762994,212.653668 C25.9762994,211.5 25.0357834,210.555681 23.8862015,210.555681 L11.7626247,210.555681 C9.69326517,210.555681 8,208.855568 8,206.77784 L8,206.777278 C8,204.700113 9.69494667,203 11.7626247,203 L11.7626247,203 Z" id="Fill-10" fill="#EAECF5"></path>
                <path d="M301.574595,100.278306 C300.749301,100.518897 299.966228,100.858454 299.23945,101.282758 C298.494096,101.718438 297.806726,102.242846 297.190851,102.842332 C297.070941,102.958931 296.891921,102.976563 296.754559,102.896366 L293.987064,101.281621 L293.971864,101.27252 C293.812547,101.184929 293.631838,101.169004 293.466892,101.213937 C293.296316,101.260007 293.143755,101.370918 293.049178,101.535862 L293.037919,101.554632 L291.090651,104.962716 C290.996638,105.127091 290.97806,105.316492 291.024222,105.489399 C291.069259,105.661169 291.179598,105.815306 291.342856,105.910291 L291.361433,105.922235 L294.106411,107.523898 C294.251091,107.607508 294.316957,107.776433 294.279238,107.931708 L294.280364,107.931708 C294.178469,108.344068 294.100781,108.768372 294.048426,109.202914 C293.99776,109.62665 293.971301,110.059486 293.971301,110.499716 C293.971301,110.939945 293.99776,111.372781 294.048426,111.795948 C294.100781,112.23049 294.179032,112.655363 294.280364,113.067154 C294.322023,113.238924 294.237017,113.41183 294.086707,113.486908 L291.342293,115.088003 L291.342856,115.088572 C291.179598,115.183557 291.069259,115.338263 291.024222,115.510032 C290.97806,115.682939 290.996638,115.87234 291.090651,116.036146 L293.049178,119.463569 C293.143755,119.628513 293.296316,119.739424 293.466892,119.785494 C293.637468,119.831565 293.823806,119.812795 293.985938,119.71781 L294.00733,119.707004 L296.756248,118.103065 C296.899802,118.020025 297.076571,118.046188 297.190851,118.15653 C297.806163,118.756016 298.494096,119.281562 299.23945,119.716673 C299.970731,120.143821 300.758308,120.484516 301.589795,120.725106 C301.750801,120.771746 301.856074,120.920195 301.856074,121.080589 L301.856074,124.307235 C301.856074,124.497205 301.933199,124.670681 302.057612,124.795811 C302.181463,124.921509 302.352038,125 302.540629,125 L306.459371,125 C306.646836,125 306.817974,124.921509 306.942951,124.795811 C307.066801,124.670681 307.143926,124.497205 307.143926,124.307235 L307.143926,121.080589 C307.143926,120.906545 307.264399,120.759802 307.425968,120.720556 C308.251262,120.479965 309.033772,120.140977 309.761112,119.716673 C310.505904,119.281562 311.193274,118.756016 311.808586,118.15653 C311.934689,118.034813 312.124405,118.021162 312.263455,118.11501 L315.012936,119.718379 C315.176194,119.812795 315.362532,119.831565 315.533108,119.785494 C315.703684,119.739424 315.856245,119.628513 315.950259,119.463569 L315.962081,119.4448 L317.909912,116.035009 L317.909349,116.035009 C318.003362,115.871202 318.02194,115.68237 317.975778,115.510032 C317.930178,115.337694 317.820402,115.182988 317.659396,115.088572 L314.893589,113.475533 C314.748909,113.391923 314.683606,113.223567 314.720199,113.067154 C314.821531,112.655363 314.899219,112.231059 314.951574,111.795948 C315.00224,111.372781 315.028699,110.939945 315.028699,110.499716 C315.028699,110.059486 315.00224,109.62665 314.951574,109.202346 C314.899219,108.768372 314.821531,108.344068 314.720199,107.931708 C314.67854,107.759939 314.76242,107.587032 314.913856,107.511954 L317.659396,105.910291 C317.820402,105.815875 317.930178,105.661737 317.975778,105.489399 C318.02194,105.317061 318.003362,105.128229 317.909349,104.963854 L317.898653,104.943378 L315.950822,101.535293 L315.950259,101.535862 C315.856245,101.370918 315.703684,101.260007 315.533108,101.213937 C315.362532,101.167866 315.176194,101.186067 315.013499,101.280483 L315.013499,101.281621 L312.245441,102.896366 C312.097383,102.982819 311.915548,102.952674 311.801268,102.834938 C311.187645,102.237727 310.501964,101.716163 309.76055,101.282758 C309.029269,100.85561 308.241129,100.514916 307.410768,100.273756 C307.249762,100.227117 307.143926,100.079236 307.143926,99.9182733 L307.143926,96.6916273 C307.143926,96.5016573 307.066801,96.3293192 306.942951,96.2030518 C306.817974,96.0773531 306.646836,96 306.459371,96 L302.540629,96 C302.352038,96 302.181463,96.0773531 302.057612,96.2030518 C301.933199,96.3293192 301.856074,96.5016573 301.856074,96.6916273 L301.856074,99.9182733 C301.856074,100.092886 301.736164,100.239061 301.574595,100.278306 Z M300.287113,106.243592 C301.365175,105.154961 302.854759,104.480966 304.500281,104.480966 C306.144678,104.480966 307.634262,105.154961 308.711761,106.243592 C309.790386,107.333359 310.45749,108.837763 310.45749,110.499716 C310.45749,112.161669 309.790386,113.666072 308.711761,114.75584 C307.634262,115.843901 306.144678,116.518465 304.500281,116.518465 C302.854759,116.518465 301.365175,115.843901 300.287113,114.75584 C299.209614,113.666072 298.543073,112.161669 298.543073,110.499716 C298.543073,108.837763 299.209614,107.333359 300.287113,106.243592 Z" id="Fill-11" fill="#EAECF5"></path>
                <path d="M97.4169703,2 L153.582472,2 C157.662503,2 161,5.36164824 161,9.46995515 L161,62.163286 C161,62.5079841 160.80489,62.8021564 160.488812,62.9340848 C160.172733,63.0660132 159.828225,62.9969613 159.586288,62.7533148 L146.947057,50.0241879 L97.4169703,50.0241879 C93.3374973,50.0241879 90,46.663101 90,42.5542327 L90,9.46995515 C90,5.36164824 93.3374973,2 97.4169703,2" id="Fill-13" fill="#ACB2D7"></path>
                <path d="M102.416414,41 L131.584144,41 C132.912893,41 134,39.904567 134,38.5643916 L134,16.2388251 C134,14.8997749 132.912893,13.8032167 131.584144,13.8032167 L130.398818,13.8032167 L130.398818,12.6700877 C130.398818,12.301005 130.099696,12 129.733607,12 L120.921231,12 C120.5557,12 120.25602,12.3015676 120.25602,12.6700877 L120.25602,13.8032167 L102.416414,13.8032167 C101.087665,13.8032167 100,14.8997749 100,16.2388251 L100,38.5643916 C100,39.9040043 101.087665,41 102.416414,41" id="Fill-14" fill="#172473"></path>
                <path d="M123.064119,41 L104.935881,41 C103.871613,41 103,40.1045556 103,39.0099355 L103,19.9895003 C103,18.8948802 103.871613,18 104.935881,18 L123.064119,18 C124.128936,18 125,18.8948802 125,19.9895003 L125,39.0099355 C125,40.1045556 124.128936,41 123.064119,41" id="Fill-15" fill="#FFFFFE"></path>
                <path d="M105.57831,41 L132.702929,41 C134.041791,41 135.624033,39.9120801 136.220394,38.5810965 L144.77068,19.4997529 C145.367042,18.169328 144.759439,17.0808493 143.421138,17.0808493 L141.995716,17.0808493 L142.531935,15.8834111 C142.749458,15.3972835 142.528001,15 142.039557,15 L132.139167,15 C131.650724,15 131.072911,15.3972835 130.855388,15.8834111 L130.319168,17.0808493 L116.296519,17.0808493 C114.958219,17.0808493 113.375977,18.169328 112.779616,19.4997529 L104.22933,38.5810965 C103.632968,39.9120801 104.240571,41 105.57831,41" id="Fill-16" fill="#4F5995"></path>
                <path d="M126.5,21.3607352 C124.417584,21.3607352 122.334037,22.1546858 120.744394,23.7442822 C119.155315,25.3338786 118.360211,27.4173631 118.360211,29.5002825 C118.360211,31.583202 119.155315,33.6661214 120.744394,35.2557178 C122.334037,36.8447491 124.417584,37.6392648 126.5,37.6392648 C128.582981,37.6392648 130.666528,36.8447491 132.255606,35.2557178 C133.84525,33.6661214 134.639789,31.583202 134.639789,29.5002825 C134.639789,27.4173631 133.84525,25.3338786 132.255606,23.7442822 C130.666528,22.1546858 128.582981,21.3607352 126.5,21.3607352 Z M119.782583,22.7825001 C121.637261,20.9278768 124.068913,20 126.5,20 C128.931087,20 131.362738,20.9278768 133.217982,22.7825001 C135.073226,24.6376885 136.000565,27.068703 136,29.5002825 C136,31.931297 135.072661,34.3623115 133.217982,36.2174999 C131.362738,38.0721232 128.931087,39 126.5,39 C124.068913,39 121.637261,38.0721232 119.782583,36.2174999 C117.927339,34.3623115 117,31.931297 117,29.5002825 C117,27.068703 117.927339,24.6376885 119.782583,22.7825001 L119.782583,22.7825001 Z" id="Fill-17" fill="#D4D6E5"></path>
                <path d="M131.22077,35.2871961 C130.92641,34.9928367 130.92641,34.5149724 131.22077,34.2212393 C131.515755,33.9262536 131.992993,33.9262536 132.287353,34.2212393 L134.778761,36.7132736 C135.073746,37.0070067 135.073746,37.484871 134.778761,37.7792304 C134.484401,38.0735899 134.00779,38.0735899 133.712804,37.7792304 L131.22077,35.2871961" id="Fill-18" fill="#D4D6E5"></path>
                <path d="M134.400091,39.3302911 C133.866636,38.7974264 133.866636,37.9329384 134.400091,37.4000737 C134.932411,36.8666421 135.796936,36.8666421 136.33039,37.4000737 L143.600334,44.6697089 C144.133222,45.2025736 144.133222,46.0670616 143.600334,46.5999263 C143.067447,47.1333579 142.202922,47.1333579 141.670035,46.5999263 L134.400091,39.3302911" id="Fill-19" fill="#D4D6E5"></path>
                <path d="M121.13603,25.5931142 C120.992091,25.7951344 120.713772,25.8406601 120.514169,25.695547 C120.314566,25.5504339 120.269023,25.2687438 120.412962,25.0661545 C120.532161,24.8988476 120.656983,24.7372315 120.786866,24.5835823 L120.807669,24.5602504 C120.942612,24.4014796 121.072494,24.2580737 121.196754,24.132309 C121.371617,23.955897 121.654434,23.955897 121.829298,24.132309 C122.003598,24.308721 122.003598,24.5955328 121.829298,24.7719448 C121.696604,24.9056765 121.581903,25.030303 121.483507,25.1452554 L121.463828,25.1702945 C121.345753,25.310855 121.236112,25.4519846 121.13603,25.5931142 Z M121.829298,34.2281975 C122.003598,34.4040404 122.003598,34.6908522 121.829298,34.8672642 C121.654434,35.0442453 121.371617,35.0442453 121.196754,34.8672642 C120.480433,34.1422677 119.938414,33.3040262 119.571257,32.4066012 C119.190044,31.4767392 119,30.4871248 119,29.5003557 C119,29.0399772 119.042732,28.5744772 119.127071,28.1112534 C119.210286,27.6577038 119.33567,27.2092759 119.502099,26.7705221 C119.589812,26.5383412 119.846765,26.4216816 120.07673,26.5110258 C120.306132,26.5998008 120.421396,26.8604353 120.333121,27.0926163 C120.187495,27.4756011 120.077854,27.8711054 120.004198,28.2734386 C119.931104,28.6740646 119.893995,29.0849338 119.893995,29.5003557 C119.893995,30.3744487 120.061549,31.2468345 120.395532,32.0640205 C120.716583,32.8482003 121.194505,33.5857163 121.829298,34.2281975 Z M132.060762,33.1133874 C132.194018,32.9034002 132.470088,32.8425096 132.677562,32.9768104 C132.885036,33.1122493 132.945198,33.391094 132.811942,33.6010812 C132.669128,33.8258643 132.512257,34.0460948 132.341892,34.2594964 C132.170403,34.4746052 131.990479,34.6777636 131.803808,34.8672642 C131.628945,35.0442453 131.345566,35.0442453 131.170702,34.8672642 C130.996964,34.6908522 130.996964,34.4040404 131.170702,34.2281975 C131.345566,34.0512164 131.504686,33.8730972 131.646938,33.6944089 C131.795937,33.5077536 131.933691,33.3131313 132.060762,33.1133874 Z M131.170702,24.7719448 C130.996964,24.5955328 130.996964,24.308721 131.170702,24.132309 C131.345566,23.955897 131.628945,23.955897 131.803808,24.132309 C132.520129,24.8573054 133.062149,25.6961161 133.429305,26.593541 C133.808269,27.5211268 133.998313,28.5101721 133.998313,29.5003557 L134,29.5003557 C134,30.2071418 133.902729,30.9156352 133.707624,31.6019348 C133.640153,31.8420828 133.39332,31.9815052 133.155484,31.9132167 C132.91821,31.8449282 132.781018,31.595106 132.847927,31.354389 C133.019979,30.7500356 133.106005,30.1257647 133.106005,29.5003557 L133.107692,29.5003557 C133.107692,28.6279698 132.939576,27.7561531 132.604468,26.9361218 C132.283417,26.1513729 131.806057,25.4144259 131.170702,24.7719448 L131.170702,24.7719448 Z" id="Fill-20" fill="#FFFFFE"></path>
                <path d="M131.487991,8 L152.512009,8 C152.780349,8 153,8.22518434 153,8.49971639 C153,8.77481566 152.780349,9 152.512009,9 L131.487991,9 C131.220205,9 131,8.77481566 131,8.49971639 C131,8.22518434 131.220205,8 131.487991,8" id="Fill-21" fill="#F1EFF3"></path>
                <path d="M131.487991,11 L152.512009,11 C152.780349,11 153,11.2251843 153,11.4997164 C153,11.7748157 152.780349,12 152.512009,12 L131.487991,12 C131.220205,12 131,11.7748157 131,11.4997164 C131,11.2251843 131.220205,11 131.487991,11" id="Fill-22" fill="#F1EFF3"></path>
                <path d="M148.49284,15 L152.506601,15 C152.777915,15 153,15.2250567 153,15.5 C153,15.7749433 152.777915,16 152.506601,16 L148.49284,16 C148.221526,16 148,15.7749433 148,15.5 C148,15.2250567 148.221526,15 148.49284,15" id="Fill-23" fill="#F1EFF3"></path>
                <path d="M148.49284,18 L152.506601,18 C152.777915,18 153,18.2250567 153,18.5 C153,18.7749433 152.777915,19 152.506601,19 L148.49284,19 C148.221526,19 148,18.7749433 148,18.5 C148,18.2250567 148.221526,18 148.49284,18" id="Fill-24" fill="#F1EFF3"></path>
                <path d="M148.49284,22 L152.506601,22 C152.777915,22 153,22.2251843 153,22.5002836 C153,22.7753829 152.777915,23 152.506601,23 L148.49284,23 C148.221526,23 148,22.7753829 148,22.5002836 C148,22.2251843 148.221526,22 148.49284,22" id="Fill-25" fill="#F1EFF3"></path>
                <path d="M148.49284,25 L152.506601,25 C152.777915,25 153,25.2251843 153,25.5002836 C153,25.7748157 152.777915,26 152.506601,26 L148.49284,26 C148.221526,26 148,25.7748157 148,25.5002836 C148,25.2251843 148.221526,25 148.49284,25" id="Fill-26" fill="#F1EFF3"></path>
                <path d="M148.49284,29 L152.506601,29 C152.777915,29 153,29.2247446 153,29.5 C153,29.7752554 152.777915,30 152.506601,30 L148.49284,30 C148.221526,30 148,29.7752554 148,29.5 C148,29.2247446 148.221526,29 148.49284,29" id="Fill-27" fill="#F1EFF3"></path>
                <path d="M148.49284,32 L152.506601,32 C152.777915,32 153,32.2250567 153,32.4994331 C153,32.7749433 152.777915,33 152.506601,33 L148.49284,33 C148.221526,33 148,32.7749433 148,32.4994331 C148,32.2250567 148.221526,32 148.49284,32" id="Fill-28" fill="#F1EFF3"></path>
                <path d="M142.485472,36 L152.513977,36 C152.781234,36 153,36.2251843 153,36.4997164 L153,36.5002836 C153,36.7748157 152.781234,37 152.513977,37 L142.485472,37 C142.218766,37 142,36.7748157 142,36.5002836 L142,36.4997164 C142,36.2251843 142.218766,36 142.485472,36" id="Fill-29" fill="#F1EFF3"></path>
                <path d="M143.494395,32 L146.505605,32 C146.777466,32 147,32.2250567 147,32.4994331 C147,32.7749433 146.777466,33 146.505605,33 L143.494395,33 C143.222534,33 143,32.7749433 143,32.4994331 C143,32.2250567 143.222534,32 143.494395,32" id="Fill-30" fill="#F1EFF3"></path>
                <path d="M144.591407,29 L146.407921,29 C146.733497,29 147,29.2247446 147,29.5 C147,29.7752554 146.733497,30 146.407921,30 L144.591407,30 C144.265831,30 144,29.7752554 144,29.5 C144,29.2247446 144.265831,29 144.591407,29" id="Fill-31" fill="#F1EFF3"></path>
                <path d="M145.471028,25 L146.528438,25 C146.787984,25 147,25.2251843 147,25.5002836 C147,25.7748157 146.787984,26 146.528438,26 L145.471028,26 C145.211482,26 145,25.7748157 145,25.5002836 C145,25.2251843 145.211482,25 145.471028,25" id="Fill-32" fill="#F1EFF3"></path>
                <path d="M103.799548,63 L106.200452,63 C106.639752,63 107,63.3591191 107,63.7995483 L107,66.1998871 C107,66.6391869 106.639752,67 106.200452,67 L103.799548,67 C103.359684,67 103,66.6391869 103,66.1998871 L103,63.7995483 C103,63.3591191 103.359684,63 103.799548,63" id="Fill-33" fill="#7FB3D5"></path>
                <path d="M111.799209,63 L114.200791,63 C114.640215,63 115,63.3591191 115,63.7995483 L115,66.1998871 C115,66.6391869 114.640215,67 114.200791,67 L111.799209,67 C111.359221,67 111,66.6391869 111,66.1998871 L111,63.7995483 C111,63.3591191 111.359221,63 111.799209,63" id="Fill-34" fill="#FFFFFE"></path>
                <path d="M119.799661,63 L122.200339,63 C122.640265,63 123,63.3591191 123,63.7995483 L123,66.1998871 C123,66.6391869 122.640265,67 122.200339,67 L119.799661,67 C119.359735,67 119,66.6391869 119,66.1998871 L119,63.7995483 C119,63.3591191 119.359735,63 119.799661,63" id="Fill-35" fill="#7FB3D5"></path>
                <path d="M127.799096,63 L130.200904,63 C130.640265,63 131,63.3591191 131,63.7995483 L131,66.1998871 C131,66.6391869 130.640265,67 130.200904,67 L127.799096,67 C127.359735,67 127,66.6391869 127,66.1998871 L127,63.7995483 C127,63.3591191 127.359735,63 127.799096,63" id="Fill-36" fill="#7FB3D5"></path>
                <path d="M37.6541698,26 C37.9535374,26 38.1960419,26.4482883 38.1960419,26.9996396 C38.1960419,27.5517117 37.9535374,28 37.6541698,28 L35.5413146,28 C35.2425045,28 35,27.5517117 35,26.9996396 C35,26.4482883 35.2425045,26 35.5413146,26 L37.6541698,26 Z M41.0927162,28 C40.793906,28 40.5514015,27.5517117 40.5514015,26.9996396 C40.5514015,26.4482883 40.793906,26 41.0927162,26 L66.4586854,26 C66.7574955,26 67,26.4482883 67,26.9996396 C67,27.5517117 66.7574955,28 66.4586854,28 L41.0927162,28 L41.0927162,28 Z" id="Fill-37" fill="#EAECF5"></path>
                <path d="M73.526827,58.0252062 C73.6504009,57.9011023 73.8511409,57.9011023 73.9747148,58.0252062 C74.0982886,58.1487705 74.0982886,58.3494951 73.9747148,58.4730594 L72.9677767,59.4799198 C72.8436633,59.6034842 72.6434628,59.6034842 72.519889,59.4799198 C72.3963151,59.3563555 72.3963151,59.1556309 72.519889,59.0320666 L73.526827,58.0252062 Z M74.6832408,60.183535 C74.8586186,60.183535 75,60.3249056 75,60.4997302 C75,60.6745548 74.8586186,60.816465 74.6832408,60.816465 L73.258634,60.816465 C73.0843355,60.816465 72.9424144,60.6745548 72.9424144,60.4997302 C72.9424144,60.3249056 73.0843355,60.183535 73.258634,60.183535 L74.6832408,60.183535 Z M73.9747148,62.5269406 C74.0982886,62.6505049 74.0982886,62.8512295 73.9747148,62.9747938 C73.8511409,63.0983581 73.6504009,63.0983581 73.526827,62.9747938 L72.519889,61.9679334 C72.3963151,61.8438295 72.3963151,61.6436445 72.519889,61.5195406 C72.6434628,61.3965158 72.8436633,61.3965158 72.9677767,61.5195406 L73.9747148,62.5269406 Z M71.8162195,63.6832652 C71.8162195,63.8580899 71.6748381,64 71.5,64 C71.3246223,64 71.1837805,63.8580899 71.1837805,63.6832652 L71.1837805,62.2587682 C71.1837805,62.0839436 71.3246223,61.9420335 71.5,61.9420335 C71.6748381,61.9420335 71.8162195,62.0839436 71.8162195,62.2587682 L71.8162195,63.6832652 Z M69.4726334,62.9747938 C69.3490595,63.0983581 69.1483195,63.0983581 69.0247456,62.9747938 C68.9011718,62.8512295 68.9011718,62.6505049 69.0247456,62.5269406 L70.0316836,61.5195406 C70.1552575,61.3965158 70.3559975,61.3965158 70.4795714,61.5195406 C70.6036849,61.6436445 70.6036849,61.8438295 70.4795714,61.9679334 L69.4726334,62.9747938 Z M68.3162195,60.816465 C68.1413814,60.816465 68,60.6745548 68,60.4997302 C68,60.3249056 68.1413814,60.183535 68.3162195,60.183535 L69.7408264,60.183535 C69.9156645,60.183535 70.0570459,60.3249056 70.0570459,60.4997302 C70.0570459,60.6745548 69.9156645,60.816465 69.7408264,60.816465 L68.3162195,60.816465 Z M69.0247456,58.4730594 C68.9011718,58.3494951 68.9011718,58.1487705 69.0247456,58.0252062 C69.1483195,57.9011023 69.3490595,57.9011023 69.4726334,58.0252062 L70.4795714,59.0320666 C70.6036849,59.1556309 70.6036849,59.3563555 70.4795714,59.4799198 C70.3559975,59.6034842 70.1552575,59.6034842 70.0316836,59.4799198 L69.0247456,58.4730594 Z M71.1837805,57.3167348 C71.1837805,57.1419101 71.3246223,57 71.5,57 C71.6748381,57 71.8162195,57.1419101 71.8162195,57.3167348 L71.8162195,58.7406922 C71.8162195,58.9155168 71.6748381,59.057427 71.5,59.057427 C71.3246223,59.057427 71.1837805,58.9155168 71.1837805,58.7406922 L71.1837805,57.3167348 L71.1837805,57.3167348 Z" id="Fill-38" fill="#7FB3D5"></path>
                <path d="M267.526827,19.0247456 C267.649861,18.9011718 267.851141,18.9011718 267.974715,19.0247456 C268.098289,19.1488591 268.098289,19.3490595 267.974715,19.4726334 L266.967777,20.480111 C266.844203,20.6036849 266.643463,20.6036849 266.519349,20.480111 C266.396855,20.3565372 266.396855,20.1563367 266.519349,20.0322233 L267.526827,19.0247456 Z M268.683241,21.1832408 C268.858079,21.1832408 269,21.3251619 269,21.5 C269,21.6748381 268.858079,21.8167592 268.683241,21.8167592 L267.258634,21.8167592 C267.084335,21.8167592 266.941875,21.6748381 266.941875,21.5 C266.941875,21.3251619 267.084335,21.1832408 267.258634,21.1832408 L268.683241,21.1832408 Z M267.974715,23.5273666 C268.098289,23.6504009 268.098289,23.8516805 267.974715,23.9747148 C267.851141,24.0982886 267.649861,24.0982886 267.526827,23.9747148 L266.519349,22.9683164 C266.396855,22.8442029 266.396855,22.6440025 266.519349,22.519889 C266.643463,22.3963151 266.844203,22.3963151 266.967777,22.519889 L267.974715,23.5273666 Z M265.81622,24.6837805 C265.81622,24.8586186 265.674838,25 265.5,25 C265.324622,25 265.183241,24.8586186 265.183241,24.6837805 L265.183241,23.2591736 C265.183241,23.0843355 265.324622,22.9429541 265.5,22.9429541 C265.674838,22.9429541 265.81622,23.0843355 265.81622,23.2591736 L265.81622,24.6837805 Z M263.472633,23.9747148 C263.34906,24.0982886 263.14778,24.0982886 263.025285,23.9747148 C262.900632,23.8516805 262.900632,23.6504009 263.025285,23.5273666 L264.031684,22.519889 C264.155797,22.3963151 264.355458,22.3963151 264.480111,22.519889 C264.603145,22.6440025 264.603145,22.8442029 264.480111,22.9683164 L263.472633,23.9747148 Z M262.316759,21.8167592 C262.141381,21.8167592 262,21.6748381 262,21.5 C262,21.3251619 262.141381,21.1832408 262.316759,21.1832408 L263.740826,21.1832408 C263.915125,21.1832408 264.057586,21.3251619 264.057586,21.5 C264.057586,21.6748381 263.915125,21.8167592 263.740826,21.8167592 L262.316759,21.8167592 Z M263.025285,19.4726334 C262.900632,19.3490595 262.900632,19.1488591 263.025285,19.0247456 C263.14778,18.9011718 263.34906,18.9011718 263.472633,19.0247456 L264.480111,20.0322233 C264.603145,20.1563367 264.603145,20.3565372 264.480111,20.480111 C264.355458,20.6036849 264.155797,20.6036849 264.031684,20.480111 L263.025285,19.4726334 Z M265.183241,18.3167592 C265.183241,18.1419211 265.324622,18 265.5,18 C265.674838,18 265.81622,18.1419211 265.81622,18.3167592 L265.81622,19.7408264 C265.81622,19.9156645 265.674838,20.0575856 265.5,20.0575856 C265.324622,20.0575856 265.183241,19.9156645 265.183241,19.7408264 L265.183241,18.3167592 L265.183241,18.3167592 Z" id="Fill-39" fill="#7FB3D5"></path>
                <path d="M292.526941,170.025206 C292.651044,169.902181 292.851229,169.902181 292.974794,170.025206 C293.098898,170.148771 293.098898,170.348956 292.974794,170.473599 L291.967933,171.47992 C291.844369,171.604024 291.643105,171.604024 291.52008,171.47992 C291.395976,171.356895 291.395976,171.156171 291.52008,171.032606 L292.526941,170.025206 Z M293.683805,172.183535 C293.85809,172.183535 294,172.325985 294,172.50027 C294,172.674555 293.85809,172.817005 293.683805,172.817005 L292.259308,172.817005 C292.083944,172.817005 291.942573,172.674555 291.942573,172.50027 C291.942573,172.325985 292.083944,172.183535 292.259308,172.183535 L293.683805,172.183535 Z M292.974794,174.526941 C293.098898,174.651044 293.098898,174.85069 292.974794,174.975333 C292.851229,175.098358 292.651044,175.098358 292.526941,174.975333 L291.52008,173.968473 C291.395976,173.844369 291.395976,173.643105 291.52008,173.52008 C291.643105,173.395976 291.844369,173.395976 291.967933,173.52008 L292.974794,174.526941 Z M290.817005,175.683265 C290.817005,175.858629 290.674555,176 290.49973,176 C290.325445,176 290.183535,175.858629 290.183535,175.683265 L290.183535,174.259308 C290.183535,174.084483 290.325445,173.942573 290.49973,173.942573 C290.674555,173.942573 290.817005,174.084483 290.817005,174.259308 L290.817005,175.683265 Z M288.473059,174.975333 C288.349495,175.098358 288.14931,175.098358 288.024667,174.975333 C287.902181,174.85069 287.902181,174.651044 288.024667,174.526941 L289.032606,173.52008 C289.156171,173.395976 289.356895,173.395976 289.480459,173.52008 C289.604024,173.643105 289.604024,173.844369 289.480459,173.968473 L288.473059,174.975333 Z M287.317274,172.817005 C287.142989,172.817005 287,172.674555 287,172.50027 C287,172.325985 287.142989,172.183535 287.317274,172.183535 L288.740692,172.183535 C288.916056,172.183535 289.057427,172.325985 289.057427,172.50027 C289.057427,172.674555 288.916056,172.817005 288.740692,172.817005 L287.317274,172.817005 Z M288.024667,170.473599 C287.902181,170.348956 287.902181,170.148771 288.024667,170.025206 C288.14931,169.902181 288.349495,169.902181 288.473059,170.025206 L289.480459,171.032606 C289.604024,171.156171 289.604024,171.356895 289.480459,171.47992 C289.356895,171.604024 289.156171,171.604024 289.032606,171.47992 L288.024667,170.473599 Z M290.183535,169.316735 C290.183535,169.14191 290.325445,169 290.49973,169 C290.674555,169 290.817005,169.14191 290.817005,169.316735 L290.817005,170.741232 C290.817005,170.915517 290.674555,171.057967 290.49973,171.057967 C290.325445,171.057967 290.183535,170.915517 290.183535,170.741232 L290.183535,169.316735 L290.183535,169.316735 Z" id="Fill-40" fill="#609DF6"></path>
                <path d="M9.52694057,117.025206 C9.65050489,116.901642 9.85176906,116.901642 9.9747938,117.025206 C10.0983581,117.148231 10.0983581,117.348956 9.9747938,117.473599 L8.96739382,118.47992 C8.84436907,118.603484 8.64364449,118.603484 8.51954058,118.47992 C8.39651584,118.356895 8.39651584,118.156171 8.51954058,118.032067 L9.52694057,117.025206 Z M10.6832652,119.183535 C10.8580899,119.183535 11,119.325445 11,119.50027 C11,119.674555 10.8580899,119.816465 10.6832652,119.816465 L9.25930779,119.816465 C9.08448316,119.816465 8.94257304,119.674555 8.94257304,119.50027 C8.94257304,119.325445 9.08448316,119.183535 9.25930779,119.183535 L10.6832652,119.183535 Z M9.9747938,121.526401 C10.0983581,121.651044 10.0983581,121.851229 9.9747938,121.974794 C9.85176906,122.097819 9.65050489,122.097819 9.52694057,121.974794 L8.51954058,120.967394 C8.39651584,120.844369 8.39651584,120.643105 8.51954058,120.52008 C8.64364449,120.396516 8.84436907,120.396516 8.96739382,120.52008 L9.9747938,121.526401 Z M7.81700455,122.683265 C7.81700455,122.85809 7.67455484,123 7.50026979,123 C7.32544516,123 7.18353503,122.85809 7.18353503,122.683265 L7.18353503,121.258768 C7.18353503,121.084483 7.32544516,120.942033 7.50026979,120.942033 C7.67455484,120.942033 7.81700455,121.084483 7.81700455,121.258768 L7.81700455,122.683265 Z M5.47305943,121.974794 C5.34949511,122.097819 5.14877052,122.097819 5.0252062,121.974794 C4.90164187,121.851229 4.90164187,121.651044 5.0252062,121.526401 L6.0320666,120.52008 C6.15617051,120.396516 6.35689509,120.396516 6.47991983,120.52008 C6.60402374,120.643105 6.60402374,120.844369 6.47991983,120.967394 L5.47305943,121.974794 Z M4.31673476,119.816465 C4.14191012,119.816465 4,119.674555 4,119.50027 C4,119.325445 4.14191012,119.183535 4.31673476,119.183535 L5.74123179,119.183535 C5.91605642,119.183535 6.05796655,119.325445 6.05796655,119.50027 C6.05796655,119.674555 5.91605642,119.816465 5.74123179,119.816465 L4.31673476,119.816465 Z M5.0252062,117.473599 C4.90164187,117.348956 4.90164187,117.148231 5.0252062,117.025206 C5.14877052,116.901642 5.34949511,116.901642 5.47305943,117.025206 L6.47991983,118.032067 C6.60402374,118.156171 6.60402374,118.356895 6.47991983,118.47992 C6.35689509,118.603484 6.15617051,118.603484 6.0320666,118.47992 L5.0252062,117.473599 Z M7.18353503,116.317274 C7.18353503,116.14191 7.32544516,116 7.50026979,116 C7.67455484,116 7.81700455,116.14191 7.81700455,116.317274 L7.81700455,117.741232 C7.81700455,117.915517 7.67455484,118.057967 7.50026979,118.057967 C7.32544516,118.057967 7.18353503,117.915517 7.18353503,117.741232 L7.18353503,116.317274 L7.18353503,116.317274 Z" id="Fill-41" fill="#7FB3D5"></path>
                <path d="M309.799661,19 L312.200904,19 C312.639701,19 313,19.3586557 313,19.7992093 L313,22.2007907 C313,22.6396498 312.639701,23 312.200904,23 L309.799661,23 C309.35917,23 309,22.6396498 309,22.2007907 L309,19.7992093 C309,19.3586557 309.35917,19 309.799661,19" id="Fill-43" fill="#AFB3CF"></path>
                <path d="M318.799661,19 L321.200904,19 C321.639701,19 322,19.3586557 322,19.7992093 L322,22.2007907 C322,22.6396498 321.639701,23 321.200904,23 L318.799661,23 C318.359735,23 318,22.6396498 318,22.2007907 L318,19.7992093 C318,19.3586557 318.359735,19 318.799661,19" id="Fill-44" fill="#FFFFFE"></path>
                <path d="M326.799096,19 L329.200339,19 C329.639701,19 330,19.3586557 330,19.7992093 L330,22.2007907 C330,22.6396498 329.639701,23 329.200339,23 L326.799096,23 C326.35917,23 326,22.6396498 326,22.2007907 L326,19.7992093 C326,19.3586557 326.35917,19 326.799096,19" id="Fill-45" fill="#AFB3CF"></path>
                <path d="M334.799661,19 L337.200339,19 C337.640265,19 338,19.3586557 338,19.7992093 L338,22.2007907 C338,22.6396498 337.640265,23 337.200339,23 L334.799661,23 C334.359735,23 334,22.6396498 334,22.2007907 L334,19.7992093 C334,19.3586557 334.359735,19 334.799661,19" id="Fill-46" fill="#AFB3CF"></path>
                <path d="M10.5742919,37.2783062 C9.74899109,37.518897 8.96591239,37.8578853 8.23969275,38.2821896 C7.49433243,38.7178693 6.80639413,39.2422774 6.1910778,39.8423324 C6.07060415,39.9589307 5.89214552,39.9765627 5.75478305,39.895797 L2.98614102,38.281052 L2.97150404,38.2719517 C2.81218609,38.1854983 2.63203858,38.1690039 2.46709101,38.2139369 C2.29651384,38.2594387 2.14338846,38.3709181 2.04993694,38.5352933 L2.03811476,38.5546316 L0.0902698221,41.962716 C-0.00318169803,42.1270912 -0.0217594099,42.3164924 0.0238404283,42.4888305 C0.0694402664,42.6611685 0.179217655,42.8153059 0.341913373,42.9102909 L0.361054046,42.9222351 L3.10661467,44.5238982 C3.25073268,44.6075078 3.31716207,44.7758644 3.27888073,44.9311393 L3.27944369,44.9311393 C3.17811071,45.3434993 3.10098506,45.7683723 3.04862969,46.2029145 C2.99740024,46.6266499 2.97094108,47.0594858 2.97094108,47.4997156 C2.97094108,47.9399455 2.99740024,48.3727813 3.04862969,48.7965168 C3.10098506,49.2304901 3.17867367,49.6553631 3.28000665,50.0677231 C3.32166576,50.2394924 3.23778458,50.4123992 3.08691104,50.4869084 L0.341913373,52.0885716 L0.341913373,52.0891404 C0.179217655,52.1835566 0.0694402664,52.3382627 0.0238404283,52.5106007 C-0.0217594099,52.6829388 -0.00318169803,52.8729088 0.0902698221,53.0367152 L2.04937398,56.4641379 L2.04993694,56.4641379 C2.14338846,56.6285132 2.29651384,56.7399925 2.46652805,56.7860631 C2.63710523,56.8315649 2.82400827,56.8133642 2.98614102,56.7183792 L3.00697058,56.7070037 L5.75590897,55.1036343 C5.90002698,55.0200247 6.07679672,55.046757 6.1910778,55.1570989 C6.80639413,55.756585 7.49433243,56.281562 8.23912979,56.7172416 C8.97041608,57.143821 9.75912439,57.4845157 10.5894918,57.7256752 C10.7504986,57.7723145 10.8557723,57.9201953 10.8557723,58.0811579 L10.8557723,61.307804 C10.8557723,61.4972052 10.932898,61.6706808 11.0573124,61.7958107 C11.1817267,61.9215094 11.3528669,62 11.5408958,62 L15.4591042,62 C15.6471331,62 15.8182733,61.9215094 15.9421247,61.7958107 C16.067102,61.6706808 16.1442277,61.4972052 16.1442277,61.307804 L16.1442277,58.0811579 C16.1442277,57.9065448 16.2641383,57.7603703 16.4251452,57.721125 C17.2515719,57.4805343 18.0340876,57.1415459 18.7603073,56.7172416 C19.5062305,56.281562 20.1936059,55.756585 20.8089222,55.1570989 C20.9344625,55.0353816 21.1247433,55.021731 21.2637947,55.1150097 L24.0127331,56.7183792 C24.1754288,56.8133642 24.3628948,56.8321337 24.5334719,56.7860631 C24.7034862,56.7399925 24.8560486,56.6285132 24.9500631,56.4641379 L24.9618852,56.4447997 L26.9097302,53.0355777 C27.0031817,52.8712025 27.0217594,52.68237 26.9761596,52.510032 C26.9305597,52.3376939 26.8213453,52.1835566 26.6597755,52.0891404 L23.8933853,50.475533 C23.7492673,50.3919234 23.6828379,50.2235668 23.7211193,50.0682919 L23.7199934,50.0682919 C23.8213263,49.6553631 23.8995779,49.2310589 23.9513703,48.7965168 C24.0025998,48.3727813 24.0290589,47.9399455 24.0290589,47.4997156 C24.0290589,47.0594858 24.0025998,46.6260812 23.9513703,46.2029145 C23.8995779,45.7683723 23.8218893,45.3434993 23.7199934,44.9311393 C23.6788972,44.7599388 23.7633413,44.587032 23.9136519,44.511954 L26.6597755,42.9102909 C26.8213453,42.8158746 26.9305597,42.6617373 26.9761596,42.4888305 C27.0217594,42.3170612 27.0031817,42.1282288 26.9097302,41.9644223 L26.898471,41.9433777 L24.951189,38.5352933 L24.9500631,38.5352933 C24.8560486,38.3709181 24.7034862,38.2594387 24.5334719,38.2139369 C24.3628948,38.1678663 24.1754288,38.1866358 24.0127331,38.281052 L24.013859,38.281052 L21.245217,39.895797 C21.0977212,39.9822504 20.9147589,39.9526742 20.8010408,39.8343695 C20.1874133,39.238296 19.5022898,38.7155942 18.7603073,38.2821896 C18.0295839,37.8550415 17.2414386,37.5143468 16.4099452,37.2737561 C16.2495014,37.2271167 16.1442277,37.0798047 16.1442277,36.9182733 L16.1442277,33.692196 C16.1442277,33.5022261 16.067102,33.3287505 15.9421247,33.2036205 C15.8182733,33.0779218 15.6471331,33 15.4591042,33 L11.5408958,33 C11.3528669,33 11.1817267,33.0779218 11.0573124,33.2036205 C10.932898,33.3287505 10.8557723,33.5022261 10.8557723,33.692196 L10.8557723,36.9182733 C10.8557723,37.0928864 10.7352987,37.2396297 10.5742919,37.2783062 Z M9.28792606,43.2441603 C10.3654333,42.1549611 11.8550281,41.4809657 13.5,41.4809657 C15.1449719,41.4809657 16.6345667,42.1549611 17.7126369,43.2441603 C18.7907071,44.3327907 19.4572529,45.8377626 19.4572529,47.4997156 C19.4572529,49.1616687 18.7907071,50.6660717 17.7126369,51.7558397 C16.6345667,52.8444702 15.1449719,53.5190343 13.5,53.5190343 C11.8550281,53.5190343 10.3654333,52.8444702 9.28792606,51.7558397 C8.20929285,50.6660717 7.54274707,49.1616687 7.54274707,47.4997156 C7.54274707,45.8377626 8.20929285,44.3327907 9.28792606,43.2441603 Z" id="Fill-47" fill="#EAECF5"></path>
                <path d="M193.608302,96.6996744 C190.147731,100.02808 189.607366,100.422996 189.607366,100.422996 C189.607366,100.422996 187.322158,105.004136 188.201299,105 C189.081001,104.997041 189.782075,104.158732 189.782075,104.158732 C189.782075,104.158732 190.638818,105.312737 191.408767,104.831508 C192.178156,104.349687 192.584129,104.169965 192.584129,104.169965 C192.584129,104.169965 193.467191,105.095179 194.195703,104.492755 C194.924214,103.88974 198.402704,99.9252129 198.402704,99.9252129 L203,96.7434225 L201.167241,95 L193.608302,96.6996744" id="Fill-48" fill="#E086A3"></path>
                <path d="M250,189.727282 C249.932537,190.209009 249.386357,192.632089 249.395532,192.692652 C249.491599,193.406074 249.661606,194.836253 249.661606,194.836253 C249.661606,194.836253 248.305331,196.442009 247.046203,196.675927 C245.788154,196.909289 240.074853,197.1721 240.002533,196.850393 C239.930213,196.529242 241.430588,193.989481 241.430588,193.989481 C241.430588,193.989481 243.052937,192.58875 243.270437,189.348346 C243.487938,186.107387 250,189.727282 250,189.727282" id="Fill-49" fill="#EFC3CC"></path>
                <path d="M242.039879,195.147349 L242.746207,194.89379 C242.746207,194.89379 244.3462,195.737352 246.358445,195.049743 C248.371779,194.360497 248.91691,193.229567 248.91691,193.229567 C248.91691,193.229567 249.014391,193 249.23168,193 C249.447336,193 249.517043,193 249.706015,193 C249.894986,193 250.418878,193.082339 250.635623,193.598182 C250.851824,194.114571 251.306008,197.263617 250.687903,199.009088 C250.069798,200.754014 249.203362,200.524447 249.203362,200.524447 C249.203362,200.524447 245.764302,199.508573 243.444366,200.327598 C241.12443,201.147713 239,202 239,202 C239,202 239.111096,197.376492 242.039879,195.147349" id="Fill-50" fill="#0D181F"></path>
                <path d="M226.260556,202.200636 L226,201.396916 C226,201.396916 226,200.784946 226,200.420678 C226,200.055245 226.145556,198.95603 227.157781,198.95603 C228.169451,198.95603 230.13779,198.95603 231.036126,198.95603 C231.935018,198.95603 236.796699,196.363027 240.532821,193.174373 C240.532821,193.174373 240.79671,192.849738 241.188378,193.086366 C241.580046,193.322994 242.771716,194.321962 242.892272,194.426288 C243.013384,194.532363 243.028384,194.961325 242.957272,195.110529 C242.88505,195.25915 239.427262,202.443093 239.427262,202.443093 C239.427262,202.443093 229.246676,203.844795 226.260556,202.200636" id="Fill-51" fill="#172935"></path>
                <path d="M226.229536,200.777717 C226.229536,200.777717 226,200.964874 226,201.173985 C226,201.382547 226,201.745884 226,201.910538 C226,202.07629 226.451273,202.849067 227.457444,202.849067 C228.463615,202.849067 236.843362,202.849067 238.251221,202.849067 C239.658524,202.849067 241.143824,202.497805 242.104868,202.021954 C243.065912,201.54775 244.884932,201.01921 244.884932,201.01921 C244.884932,201.01921 245.141767,200.933589 245.141767,201.369374 C245.141767,201.805159 245.141767,202.002195 245.141767,202.21405 C245.141767,202.425357 245.010843,203 245.891103,203 C246.771364,203 250.74145,203 251.142025,203 C251.542042,203 252,202.775521 252,201.969813 C252,201.164654 252,200.399012 252,199.897366 C252,199.396268 251.690795,199 251.359304,199 C251.027256,199 249.014914,199 247.321805,199 C245.628696,199 244.278778,199.408891 242.173395,200.38584 C240.069127,201.362788 238.147596,201.653677 235.950287,201.653677 C233.75465,201.653677 230.975144,201.653677 229.911588,201.653677 C228.846919,201.653677 226.94823,201.415477 226.229536,200.777717" id="Fill-52" fill="#0D181F"></path>
                <path d="M273,189.727282 C272.932001,190.209009 272.386392,192.632089 272.395567,192.692652 C272.491629,193.406074 272.661625,194.836253 272.661625,194.836253 C272.661625,194.836253 271.305429,196.442009 270.046373,196.675927 C268.787857,196.909289 263.075964,197.1721 263.002568,196.850393 C262.929713,196.529242 264.431081,193.989481 264.431081,193.989481 C264.431081,193.989481 266.053337,192.58875 266.270825,189.348346 C266.488313,186.107387 273,189.727282 273,189.727282" id="Fill-53" fill="#EFC3CC"></path>
                <path d="M265.039913,195.147349 L265.745704,194.89379 C265.745704,194.89379 267.345715,195.737352 269.357983,195.049743 C271.371884,194.360497 271.916476,193.229567 271.916476,193.229567 C271.916476,193.229567 272.014502,193 272.23125,193 C272.447453,193 272.517705,193 272.706134,193 C272.894563,193 273.419005,193.082339 273.635753,193.598182 C273.851956,194.114571 274.306146,197.263617 273.687489,199.009088 C273.069377,200.754014 272.202931,200.524447 272.202931,200.524447 C272.202931,200.524447 268.764377,199.508573 266.44496,200.327598 C264.124453,201.147713 262,202 262,202 C262,202 262.111641,197.376492 265.039913,195.147349" id="Fill-54" fill="#0D181F"></path>
                <path d="M249.260557,202.200636 L249,201.396916 C249,201.396916 249,200.784946 249,200.420678 C249,200.055245 249.146112,198.95603 250.157785,198.95603 C251.170568,198.95603 253.137802,198.95603 254.036696,198.95603 C254.935035,198.95603 259.797285,196.363027 263.532862,193.174373 C263.532862,193.174373 263.796753,192.849738 264.188422,193.086366 C264.580646,193.322994 265.771764,194.321962 265.892876,194.426288 C266.013988,194.532363 266.027877,194.961325 265.957321,195.110529 C265.886209,195.25915 262.428411,202.443093 262.428411,202.443093 C262.428411,202.443093 252.247241,203.844795 249.260557,202.200636" id="Fill-55" fill="#12202A"></path>
                <path d="M249.228432,200.777717 C249.228432,200.777717 249,200.964874 249,201.173985 C249,201.382547 249,201.745884 249,201.910538 C249,202.07629 249.450178,202.849067 250.456949,202.849067 C251.463721,202.849067 259.843269,202.849067 261.250632,202.849067 C262.658552,202.849067 264.143916,202.497805 265.105002,202.021954 C266.066644,201.54775 267.884627,201.01921 267.884627,201.01921 C267.884627,201.01921 268.142031,200.933589 268.142031,201.369374 C268.142031,201.805159 268.142031,202.002195 268.142031,202.21405 C268.142031,202.425357 268.0111,203 268.891398,203 C269.772811,203 273.741396,203 274.142545,203 C274.542579,203 275,202.775521 275,201.969813 C275,201.164654 275,200.399012 275,199.897366 C275,199.396268 274.691338,199 274.359277,199 C274.027772,199 272.014786,199 270.321047,199 C268.628423,199 267.279004,199.408891 265.173531,200.38584 C263.068615,201.362788 261.147002,201.653677 258.950714,201.653677 C256.754425,201.653677 253.974242,201.653677 252.910084,201.653677 C251.846484,201.653677 249.947714,201.415477 249.228432,200.777717" id="Fill-56" fill="#0D181F"></path>
                <path d="M208.403458,42 C208.403458,42 205.980876,46.127326 207.501439,55.5118109 C209.020892,64.8957325 219.511167,101.418737 212.3871,120.477206 C212.3871,120.477206 211.947185,121.784455 213.171513,122.503696 C214.396395,123.2235 231.698414,126.272246 244.348321,120.801624 C256.998227,115.329313 234.781146,44.7829036 208.403458,42" id="Fill-57" fill="#2975AD"></path>
                <path d="M242.14723,191.972686 C242.14723,191.972686 245.027906,193.714362 249.90103,192.662169 C249.90103,192.662169 251.141728,192.204572 251.418065,190.923301 C251.694403,189.640906 260.799436,113.3373 261.901965,99.7913041 C263.005623,86.2458699 254.691817,77.9737504 241.957178,69.278845 C229.223103,60.5839396 239.8807,67.9251438 238.893217,67.3676053 C235.736204,79.0057301 232.028208,86.4917932 232.028208,86.4917932 L232,92.2283197 C231.998319,92.6235937 232.195703,92.9902328 232.289883,93.3647325 C236.171013,108.722026 236.629507,120.975521 237.212071,136.424334 C237.235757,136.875194 236.984234,124.82832 237.265083,137.773544 C237.545368,150.719891 240.491462,187.945832 240.675311,189.410142 C240.860288,190.874453 241.502631,191.835126 242.14723,191.972686" id="Fill-58" fill="#172935"></path>
                <path d="M210.871445,56.4262089 L214.584187,62.3532482 C214.584187,62.3532482 230.316268,88.9381908 232.496587,92.7248482 C234.676906,96.510946 244,95.9737521 244,95.9737521 L224.084755,39.0289606 C224.084755,39.0289606 217.127986,37.9456196 214.430603,38.0021369 C211.732082,38.0586542 210,42.121183 210,42.121183 L210.871445,56.4262089" id="Fill-59" fill="#130E24"></path>
                <path d="M208.435155,42 C208.435155,42 205.95786,46.1070021 207.512764,55.4452757 C208.714254,62.6622335 215.392229,86.0095989 215.001376,104.998879 L215.004212,105 C218.420916,70.4362818 212.125286,48.5701946 209.927091,42.2297859 C209.431859,42.1328274 208.934358,42.0510013 208.435155,42" id="Fill-60" fill="#4584B8"></path>
                <path d="M265.415249,192.184513 C265.415249,192.184513 268.070337,193.677465 272.904893,192.623286 C272.904893,192.623286 274.135914,192.164262 274.409536,190.881134 C274.682599,189.596318 278.299003,163.964688 279.392933,150.393679 C280.487423,136.822106 289.662447,85.90649 265.442107,69.2066944 C241.221208,52.5068988 236,81.3201918 236,81.3201918 C236,81.3201918 258.596511,90.8820581 259.143196,116.374181 C259.690441,141.86574 263.772955,188.150056 263.95481,189.617694 C264.137784,191.083644 264.775677,192.047256 265.415249,192.184513" id="Fill-61" fill="#12202A"></path>
                <path d="M267.426769,192.810139 C268.691383,193.044173 270.541643,193.142298 272.91943,192.622348 C272.91943,192.622348 274.148839,192.162176 274.422103,190.875837 C274.694808,189.588934 278.306474,163.892039 279.398971,150.28707 C280.228822,139.96534 285.699131,108.092777 277.726976,86 C277.618006,86.0772593 265.166334,94.8831279 258,107.235593 C258.684557,109.971249 259.107026,112.94827 259.175762,116.182446 C259.267967,120.494868 259.461878,125.401116 259.718937,130.585384 C262.793016,127.255903 266.878005,122.775428 268.951794,120.263655 C272.535519,115.924163 276.56742,117.46089 278.000799,119.540688 C279.434177,121.619922 273.968898,173.96902 273.252488,180.659563 C272.747313,185.367869 269.378734,190.300622 267.426769,192.810139" id="Fill-62" fill="#22333F"></path>
                <path d="M204.400247,27.3403224 C204.437875,27.3363437 204.546765,27.7910465 205,28.5538103 L202.75948,30.9046233 C202.75948,30.9046233 203.330157,31.6264639 204.152251,32.4483391 C203.13404,32.7984602 202.258356,33.4071935 201.702501,34.2194062 C201.702501,34.2194062 199.29836,41.6054836 199.996171,42.3216404 C199.971656,42.3517644 199.946572,42.3813201 199.920347,42.4120125 C195.590384,47.5097984 192.931975,45.8217146 192.390374,45.3641699 C191.848772,44.9071937 189.188653,42.4751025 188.901319,42.4188331 C188.615125,42.3619952 187.587223,43.5720728 186.895113,42.9866431 C186.200722,42.4012133 182.837661,38.3003631 179.176434,32.5381429 C175.514067,26.7747859 177.581275,20.1366945 177.581275,20.1366945 C186.50858,12.9108998 193.925672,26.5178788 194.82359,24.2341344 C195.721509,21.9509583 198.282429,21.7389532 199.701996,24.2733525 C199.900393,24.6274523 204.347798,26.9617824 204.400247,27.3403224" id="Fill-63" fill="#EFC3CC"></path>
                <path d="M204.400254,27.2782923 C204.437881,27.2742583 204.54677,27.7352914 205,28.5086745 L202.759506,30.892216 C202.759506,30.892216 203.330176,31.6241061 204.152261,32.4574235 C203.901417,32.5450198 203.657414,32.6487523 203.427093,32.7674683 C203.386046,32.3346734 203.314783,32.0136791 203.200193,31.8799795 C202.591896,31.1705647 201.378722,29.648579 201.378722,29.648579 C201.378722,29.648579 199.680963,30.447319 199.361707,28.5536253 C199.041311,26.6599316 197.601807,24.8117649 196.093322,25.1120127 C194.585976,25.4122606 195.451389,27.396432 195.451389,27.396432 L199.018507,32.5957335 L198.424462,38.7862562 C198.424462,38.7862562 192.849451,39.8028343 193.993072,37.4020041 C195.137834,35.001174 192.209228,33.1501258 188.827392,29.2699555 C185.446127,25.3892089 183.571637,25.8047151 182.702804,26.4052108 C182.161209,26.7798002 179.645926,28.4850466 177.829586,29.7148525 C176.909444,27.0293344 176.908304,24.4123949 177.103278,22.567686 C179.144808,20.9851897 182.040347,19.279367 184.743763,18 C190.213306,19.215975 194.181775,25.782816 194.823708,24.1288595 C195.721616,21.8138968 198.282507,21.5989401 199.702057,24.1686236 C199.900452,24.5276532 204.347805,26.8944822 204.400254,27.2782923" id="Fill-64" fill="#E086A3"></path>
                <path d="M205.771817,27 C205.771817,27 207.431964,27.1168756 208.696267,27.1753134 C209.960571,27.2337512 211,35.0725169 211,35.0725169 L208.845457,38.5539055 L208.342894,39.364513 L206.712149,42 L206.557515,41.1870781 C206.557515,41.1870781 204.850542,39.7816779 203.775176,41.3635487 C202.700355,42.9448409 200.008946,38.707811 200.008946,38.707811 C200.008946,38.707811 199.519995,29.415622 205.771817,27" id="Fill-65" fill="#EFC3CC"></path>
                <path d="M205.673447,27 C205.673447,27 207.36483,27.1168711 208.652922,27.1753066 C209.941013,27.2337422 211,35.0727841 211,35.0727841 L208.804919,38.5534598 L208.292899,39.3640361 L206.631472,42 L206.473928,41.1865309 C206.473928,41.1865309 204.734837,39.7811849 203.639238,41.3629947 C203.366864,41.7564221 202.992419,41.7894006 202.584135,41.6169868 L203.336354,38.3532747 C203.336354,38.3532747 203.928809,32.340199 203.336354,31.6279796 C202.976331,31.1940523 202.397744,30.4581115 202,29.9489701 C202.855399,28.6946309 204.036982,27.6208054 205.673447,27" id="Fill-66" fill="#E086A3"></path>
                <path d="M192.259186,27.0006047 C192.254675,27.0022908 188.224832,28.963203 185.035009,22.929843 C185.035009,22.929843 180.904814,27.2939828 178.212802,28.3854392 C178.159808,28.4073583 178.102303,28.4247811 178.045362,28.4416419 L178.212802,28.3854392 C178.212802,28.3854392 177.062707,28.4264672 175.800421,27.8717465 C174.195926,27.3012891 172.154507,26.0979893 170.883764,23.5632475 C168.533962,18.8776283 171.335346,16.4895755 173.866119,16.8048726 C173.866119,16.8048726 177.661997,8.55993637 179.78629,6.12748346 C181.910584,3.69446853 186.881363,4.73084634 186.881363,4.73084634 C186.881363,4.73084634 186.158043,2.61256653 187.017232,2.11742073 C187.875293,1.62171291 192.529232,2.53894099 194.337813,7.91472936 C194.337813,7.91472936 197.953284,7.32628708 199.854324,9.1618673 C201.75029,10.9929513 205.965614,26.9359716 205.987601,27.0197136 C206.078369,28.0369825 205.674708,29.0615577 204.646951,29.0986515 C203.070644,29.1014616 201.394549,28.6276729 200.201044,27.027582 C200.201044,27.027582 198.863776,22.2705853 196.512283,22.9899799 C196.512283,22.9899799 194.51371,23.0085268 195.449572,26.3570837 C195.449572,26.3570837 196.258021,27.8087995 197.368089,28.775486 C198.480975,29.7416104 201.51576,31.7547912 203.629342,36.6736516 C205.741233,41.593074 201.278412,44.7027695 200.052772,46.1443688 C198.828259,47.5859681 196.77049,48.7100221 195.29228,47.4611981 C193.812942,46.2134981 190.478793,43.3971807 189.972526,42.9711643 C189.46795,42.5434617 189.349557,42.0752932 189.47246,41.9375966 C189.47246,41.9375966 191.624378,39.6613872 193.257626,38.097828 C194.89031,36.5325828 196.166127,35.518124 196.167254,33.7303161 C196.167818,31.9436322 196.124971,30.5318204 194.478756,28.7018604 C193.803357,27.9498683 193.016895,27.3940236 192.259186,27.0006047" id="Fill-67" fill="#130E24"></path>
                <path d="M184.82632,22.580262 C184.82632,22.580262 180.753453,26.8715096 178.098807,27.944736 C178.046548,27.966289 177.989841,27.9834208 177.933691,28 L178.098807,27.944736 C178.098807,27.944736 176.964675,27.9850787 175.71991,27.4396233 C174.137685,26.878694 172.124602,25.6954923 170.871498,23.203087 C168.554311,18.5957294 171.316811,16.2475631 173.812457,16.557594 C173.812457,16.557594 177.555647,8.45036894 179.650455,6.05854411 C181.745263,3.66616664 186.647046,4.68523434 186.647046,4.68523434 C186.647046,4.68523434 185.933767,2.60233513 186.78103,2.11545951 C187.627181,1.62803125 192.216522,2.52993932 194,7.81593851 C194,7.81593851 194.013899,13.0969639 184.82632,22.580262" id="Fill-68" fill="#16122F"></path>
                <path d="M170.380487,22.894182 C169.027975,18.9011072 171.541858,16.8928001 173.832185,17.1867547 C173.832185,17.1867547 188.348769,20.6987085 190.32053,3 C190.542409,3.13664296 190.765405,3.28878744 190.988961,3.45987821 C191.18066,10.7823335 189.054646,24.3312296 170.380487,22.894182" id="Fill-69" fill="#1E1D43"></path>
                <path d="M186.372779,35.2360288 L186.372779,35.2360288 C186.816392,34.879825 187.486584,34.9329537 187.862095,35.3537572 L188.751229,36.3517314 C189.126104,36.7725348 189.071368,37.408268 188.627119,37.7644718 C188.182871,38.1200718 187.513315,38.0669431 187.13844,37.6461397 L186.248033,36.6481654 C185.873795,36.227362 185.929167,35.5916288 186.372779,35.2360288" id="Fill-70" fill="#130E24"></path>
                <path d="M189.531175,37.3545623 C190.163832,36.8196439 191.110067,36.8991175 191.645534,37.5312383 C192.180389,38.1639703 192.100924,39.1097061 191.468267,39.6452359 C190.83561,40.1801543 189.889987,40.1012921 189.35452,39.46856 C188.819665,38.8364392 188.899129,37.8894808 189.531175,37.3545623" id="Fill-71" fill="#E06F87"></path>
                <path d="M186.765056,33.4639717 C186.926658,33.435937 187.028628,33.3102482 186.992849,33.1836248 C186.956473,33.0574687 186.796661,32.9775698 186.635059,33.0056045 C186.629096,33.006539 184.651116,33.3135189 184.017828,34.6844152 C183.961775,34.8063661 184.042277,34.9418671 184.197916,34.9857881 C184.353554,35.0301764 184.52589,34.9670983 184.58254,34.8451474 C185.100142,33.7232926 186.760286,33.4653734 186.765056,33.4639717" id="Fill-72" fill="#130E24"></path>
                <path d="M215,93.9148442 C215,93.9148442 203.011213,98.3497966 201.757377,98.949737 C200.502407,99.5496773 199.127323,94.5967989 199.010608,93.7901375 C198.893326,92.9840378 199.752824,92.0386262 201.378336,91.1156842 C203.004415,90.1921805 212.040198,85 212.040198,85 L215,93.9148442" id="Fill-73" fill="#FFFFFE"></path>
                <path d="M216.000596,93.9166792 C211.730938,95.5579987 204.330749,98.4188746 203.278229,98.9383152 C201.786606,99.6745659 200.151559,93.5965456 200.012547,92.6062207 C199.873535,91.617025 200.894612,90.4561881 202.828646,89.3235816 C203.920884,88.68275 207.830324,86.3667222 211.022638,84.4752806 C211.022638,84.4752806 213.872387,82.4477683 214.299353,77.9777556 C214.72687,73.5077429 216.230077,53 216.230077,53 L227.925299,58.3237021 L230,61.4544613 C230,61.4544613 225.61505,80.8708142 223.894499,85.3843018 C222.175052,89.8977894 219.785367,92.4577284 216.000596,93.9166792" id="Fill-74" fill="#130E24"></path>
                <path d="M276.88911,66.4895411 C276.88911,66.4895411 285.387191,81.1922434 286.991613,103.211611 C286.991613,103.211611 287.130343,103.957209 286.279351,104.319855 C285.428359,104.681938 278.311942,104.340159 269.949209,114.606502 C261.586475,124.873409 248.222117,134.097495 240.559239,132.893936 C240.559239,132.893936 239.730804,132.88886 239.628166,131.547124 C239.525528,130.205387 237.921106,69.9659866 213.304363,48.196467 C213.304363,48.196467 210.91493,46.2349035 211.002341,42.8983279 C211.089753,39.5611884 249.568817,25.9075109 276.88911,66.4895411" id="Fill-75" fill="#194584"></path>
                <path d="M270,81.9796685 L268.256167,88 C268.256167,88 264.540588,88.1859555 254.904255,68.2570048 C254.904255,68.2570048 251.069477,60.5790712 240,58.2325145 L244.930191,51 C244.930191,51 265.972077,54.8307183 265.862811,56.681796 C265.753546,58.5334426 270,81.9796685 270,81.9796685" id="Fill-76" fill="#609DF6"></path>
                <path d="M219.61836,65.960948 L226.762946,61.2815688 C227.481095,60.8114714 228.548383,60.9438074 229.135392,61.5755873 L241.622096,75.0339936 C242.208537,75.6657735 242.100105,76.5683162 241.382524,77.0389673 L234.237938,81.7177928 C233.519221,82.1889976 232.451366,82.0561079 231.864925,81.4237743 L219.37822,67.9659217 C218.791779,67.3335881 218.899076,66.4315991 219.61836,65.960948" id="Fill-77" fill="#130E24"></path>
                <path d="M218.618359,66.961282 L225.763498,62.2819306 C226.48051,61.8112823 227.548364,61.9436175 228.134804,62.576501 L240.622051,76.0342735 C241.208491,76.6660496 241.100059,77.5685869 240.383047,78.0386815 L233.237907,82.7180329 C232.519192,83.1886811 231.450771,83.0563459 230.864331,82.4240161 L218.378219,68.9662437 C217.79178,68.3339138 217.899076,67.4313765 218.618359,66.961282" id="Fill-78" fill="#1D1C40"></path>
                <path d="M220.104047,68.8788375 L221.306144,68.0496418 C221.426591,67.9667832 221.606372,67.9899348 221.705459,68.1020377 L224.936169,71.7660957 C225.034663,71.8781985 225.017456,72.0378233 224.896416,72.1212912 L223.694318,72.9498776 C223.572685,73.0333455 223.393497,73.0101938 223.295004,72.898091 L220.063106,69.234033 C219.965206,69.1219301 219.983006,68.9616961 220.104047,68.8788375" id="Fill-79" fill="#5E4988"></path>
                <path d="M221.190854,69.095802 C221.408119,68.9331692 221.722398,68.9826859 221.892786,69.2057382 C222.063581,69.4292447 222.026487,69.7417904 221.808815,69.9044232 C221.591958,70.0666017 221.278086,70.0175393 221.107291,69.7940327 C220.936088,69.5705262 220.973998,69.2579805 221.190854,69.095802" id="Fill-80" fill="#D2E9F2"></path>
                <path d="M222.191068,70.0959415 C222.407935,69.9332925 222.722636,69.9823598 222.893439,70.2058885 C223.063427,70.4289628 223.026331,70.7419939 222.808649,70.9041885 C222.59219,71.0668374 222.277896,71.0173158 222.107093,70.7942414 C221.93629,70.5707127 221.973793,70.258136 222.191068,70.0959415" id="Fill-81" fill="#D2E9F2"></path>
                <path d="M222.190663,70.0957792 C222.408608,69.9331294 222.722937,69.9828057 222.893408,70.2055478 C223.063879,70.4290911 223.025757,70.741571 222.808532,70.9042208 C222.592746,71.0668706 222.276978,71.0171943 222.107226,70.7944522 C221.936035,70.5709089 221.974158,70.2576278 222.190663,70.0957792" id="Fill-82" fill="#FFFFFE"></path>
                <path d="M221.190671,69.0956432 C221.407434,68.9333952 221.722416,68.9824469 221.893117,69.205821 C222.063817,69.429195 222.025883,69.7416168 221.809121,69.9046195 C221.591682,70.0668675 221.278054,70.0170611 221.107354,69.7936871 C220.936653,69.5710677 220.973232,69.2578913 221.190671,69.0956432" id="Fill-83" fill="#FFFFFE"></path>
                <path d="M223.19072,71.0957109 C223.407538,70.933348 223.721925,70.9824345 223.89267,71.2059667 C224.063415,71.4294988 224.026826,71.7421418 223.808653,71.9045047 C223.591834,72.0668676 223.276769,72.017026 223.106702,71.794249 C222.935958,71.571472 222.974579,71.2580738 223.19072,71.0957109" id="Fill-84" fill="#D2E9F2"></path>
                <path d="M211.947296,22 C211.805153,22.0823729 208.879482,22.8359732 208.38646,23.0563762 C207.893439,23.2762227 207.738425,24.3125623 207.630419,26.0785696 C207.521854,27.8445769 206.079164,40.9362955 206.010332,41.6821038 C205.942058,42.4284687 206.210674,42.8765103 206.860388,43.0974699 C207.509542,43.3184295 215,46 215,46 L211.947296,22" id="Fill-85" fill="#130E24"></path>
                <path d="M253.061046,60 C253.061046,60 241.612766,67.4058169 240.296143,68.0965549 C238.978388,68.7867403 242.448249,73.0300822 243.080523,73.6301954 C243.712796,74.2303086 245.083194,74.089398 246.917749,73.2848264 C248.752304,72.4802547 259,68.0468218 259,68.0468218 L253.061046,60" id="Fill-86" fill="#FFFFFE"></path>
                <path d="M258.184446,55 C258.184446,55 243.122819,65.0515223 241.389319,65.9884945 C239.65639,66.9254668 244.221347,72.6837752 245.053359,73.4986085 C245.884801,74.3122949 247.687777,74.1213453 250.101236,73.0295489 C252.515265,71.9371791 266,65.9208307 266,65.9208307 L258.184446,55" id="Fill-87" fill="#1D1C40"></path>
                <path d="M226.075475,56.2561171 C226.075475,56.2561171 233.088038,57.958493 241.407486,58.4697153 C249.726371,58.9809376 266.999043,60.1347261 268.068822,87.9383121 C268.068822,87.9383121 268.198612,88.0843756 268.643604,87.9269893 C269.089158,87.7696031 281.117437,77.0203476 282.806386,71.8543415 C284.495334,66.6877694 274.72629,47.6887561 269.369526,45.232851 C264.011076,42.777512 254.039201,40.7779138 243.144754,29.7529493 C232.250306,18.7285509 217.260468,20.0493501 217.260468,20.0493501 L214,32.2156481 C214,32.2156481 215.488365,53.1100902 226.075475,56.2561171" id="Fill-88" fill="#276BCD"></path>
                <path d="M270.197306,45.7026121 C269.887892,45.482632 269.588076,45.3017721 269.302375,45.1708045 C263.917544,42.7119034 253.896576,40.7094042 242.948492,29.6684447 C242.721513,29.4399602 242.492275,29.2182792 242.262473,29 C242.343779,29.1842617 249.331016,45.0778233 231.870545,48.6020404 C231.870545,48.6020404 230.739601,48.8293909 231.055791,49.7841499 C231.372546,50.7377749 263.156429,41.2003907 270.197306,45.7026121 Z M264.947985,72.5798703 C266.624922,76.4862178 267.746833,81.4970014 267.995268,87.9382226 C267.995268,87.9382226 268.125696,88.084498 268.572879,87.9268834 C269.020627,87.7692688 281.108124,77.0044183 282.805388,71.8309175 C283.485196,69.7598162 282.318116,65.4673697 280.330071,60.9078854 C280.322166,64.2433052 279.885711,67.938177 278.225148,69.7785259 C275.896069,72.3610241 269.105886,72.6581106 264.947985,72.5798703 L264.947985,72.5798703 Z" id="Fill-89" fill="#1F56A7"></path>
                <path d="M218.616574,20 C218.212036,20.0148041 217.991226,20.0341632 217.991226,20.0341632 L216,27.5079321 L218.890199,47.9409409 L221.428113,49 C221.428113,49 221.007281,46.1382628 221.232025,45.9327142 C221.45733,45.7271656 226.771948,43.0800872 227.447864,42.714541 C228.124341,42.3495641 227.988933,41.6879369 227.988933,41.6879369 C227.468652,40.5918676 220.215623,23.721511 218.616574,20" id="Fill-90" fill="#2975AD"></path>
                <path d="M211.983545,20.1415238 C211.983545,20.1415238 211.28729,20.4238122 211.07394,21.2207951 C210.861163,22.017778 211.167997,38.6767617 211.240261,40.5320428 C211.312525,42.3884575 218.877279,51.8700601 220.75499,54.0660145 C222.633848,56.2619689 225.410268,56.799904 226.428269,57 C226.428269,57 226.516592,56.9937647 226.528062,56.9076044 C226.538386,56.8214441 223.580159,55.6134991 222.680303,54.2632763 C221.779874,52.9130534 220.2176,47.1255743 220.034647,46.2815433 C220.034647,46.2815433 225.234197,43.8061348 226.130611,43.3044777 C227.028747,42.8028206 227.170407,42.3952596 226.830882,41.8193459 C226.49193,41.2434322 218.040511,21.479276 217.430283,20.748047 C216.820056,20.016818 214.606835,19.8371284 211.983545,20.1415238" id="Fill-91" fill="#EAECF5"></path>
                <path d="M188.891746,5.52051857 C189.006564,5.60366775 189.034706,5.76880318 188.953658,5.88800306 C188.87261,6.00720293 188.713328,6.03569461 188.597947,5.95196396 C188.590068,5.94614934 185.796164,3.87149009 181.301378,4.73670672 C181.162921,4.76345401 181.02953,4.66867558 181.004203,4.52505427 C180.978875,4.38201442 181.070617,4.2447892 181.209637,4.21862337 C185.917736,3.31270434 188.882741,5.51470394 188.891746,5.52051857" id="Fill-92" fill="#16122F"></path>
                <path d="M177.630113,28.0156876 C177.756666,27.9545476 177.911468,28.0051271 177.973049,28.1301862 C178.036326,28.2546896 177.984349,28.4058722 177.857231,28.4675681 C177.843107,28.4742379 173.047086,30.8909367 170.030717,25.3716591 C169.963486,25.2488232 170.010378,25.0965289 170.134672,25.0298307 C170.25953,24.9642441 170.414896,25.0103771 170.482127,25.1332129 C173.261774,30.2178405 177.617684,28.0218016 177.630113,28.0156876" id="Fill-93" fill="#16122F"></path>
                <path d="M240.239676,68.5166327 C239.50392,68.2393322 237.971874,67.3591793 237.5663,67.1446638 C237.109548,66.9039879 233.289889,66 233.289889,66 L235.342522,68.4096656 C235.342522,68.4096656 229.069609,71.3012643 227.701004,72.4459282 C226.332398,73.5900107 227.188671,74.1318221 228.386132,74.1318221 C229.583043,74.1318221 229.583043,74.1318221 229.583043,74.1318221 C229.583043,74.1318221 229.354667,76.3008118 230.894967,76.3606901 C232.433616,76.4211497 232.547529,76.3606901 232.547529,76.3606901 C232.547529,76.3606901 233.118194,78.1680846 234.373437,77.987287 C235.627029,77.8064895 237.794676,77.264678 240.302961,75.758419 C242.331381,74.5410874 242.869028,73.9143999 243,73.7190687 C242.174544,72.7342742 239.981584,69.7002465 240.239676,68.5166327" id="Fill-94" fill="#EBB6BF"></path>
                <path d="M240.239676,68.3558999 C240.031111,68.2766797 239.760912,68.147799 239.469251,68 C239.338829,70.4274502 241.090446,72.3565223 238.302056,73.9574806 C235.232462,75.7204267 233.220551,75.2657971 229.726672,71.682559 C229.564332,71.5637286 229.407496,71.4525838 229.25231,71.3438038 C228.571584,71.7345842 228.010825,72.0887105 227.701004,72.3517927 C226.332398,73.5152661 227.188671,74.0662607 228.386132,74.0662607 C229.583043,74.0662607 229.583043,74.0662607 229.583043,74.0662607 C229.583043,74.0662607 229.354667,76.2720124 230.894967,76.3329056 C232.433616,76.3943899 232.547529,76.3329056 232.547529,76.3329056 C232.547529,76.3329056 233.118194,78.1709335 234.373437,77.9870716 C235.627029,77.8032097 237.794676,77.2522151 240.302961,75.7204267 C242.331381,74.4824625 242.869028,73.8451534 243,73.6465116 C242.174544,72.6450258 239.981584,69.5595747 240.239676,68.3558999" id="Fill-95" fill="#E086A3"></path>
                <path d="M146.71439,76 L66.2856101,76 C62.2783849,76 59,78.7707613 59,82.1574355 L59,203 L154,203 L154,82.1574355 C154,78.7707613 150.721615,76 146.71439,76" id="Fill-96" fill="#276BCD"></path>
                <path d="M160.863989,76 L93.1354498,76 C89.7609243,76 87,78.3213876 87,81.1582001 L87,203 L167,203 L167,81.1582001 C167,78.3213876 164.239076,76 160.863989,76" id="Fill-97" fill="#609DF6"></path>
                <path d="M160.662893,80 L93.3365488,80 C92.6015865,80 92,80.5058336 92,81.1232646 L92,203 L162,203 L162,81.1232646 C162,80.5052728 161.398414,80 160.662893,80" id="Fill-98" fill="#FFFFFE"></path>
                <path d="M117.595405,79 L136.404595,79 C137.282354,79 138,79.6741645 138,80.4993573 L138,80.5012853 C138,81.3258355 137.282354,82 136.404595,82 L117.595405,82 C116.717646,82 116,81.3258355 116,80.5012853 L116,80.4993573 C116,79.6741645 116.717646,79 117.595405,79" id="Fill-99" fill="#1D1C40"></path>
                <path d="M93.3365488,80 L160.662893,80 C161.398414,80 162,80.386198 162,80.8585512 L162,81 L92,81 L92,80.8585512 C92,80.386198 92.6015865,80 93.3365488,80" id="Fill-100" fill="#1D1C40"></path>
                <path d="M117.595405,173 L136.404595,173 C137.282354,173 138,173.674807 138,174.499357 L138,174.500643 C138,175.325193 137.282354,176 136.404595,176 L117.595405,176 C116.717646,176 116,175.325193 116,174.500643 L116,174.499357 C116,173.674807 116.717646,173 117.595405,173" id="Fill-101" fill="#1D1C40"></path>
                <path d="M93.3365488,173 L160.662893,173 C161.398414,173 162,173.386461 162,173.857755 L162,174 L92,174 L92,173.857755 C92,173.386461 92.6015865,173 93.3365488,173" id="Fill-102" fill="#1D1C40"></path>
                <polygon id="Fill-103" fill="#4F5995" points="91 124 107 124 107 99 91 99"></polygon>
                <polygon id="Fill-104" fill="#4F5995" points="91 125 107 125 107 103 91 103"></polygon>
                <polygon id="Fill-105" fill="#FFFFFE" points="91 124 107 124 107 105 91 105"></polygon>
                <polygon id="Fill-106" fill="#FFF3CE" points="91 124 107 124 107 105 91 105"></polygon>
                <path d="M107,104 L95.1591942,104 C93.4100161,104 91.6233476,105.344326 91,107.06151 L91,125 L107,125 L107,104" id="Fill-107" fill="#4F5995"></path>
                <polygon id="Fill-108" fill="#172473" points="96 121 107 121 107 99 96 99"></polygon>
                <polygon id="Fill-109" fill="#E07642" points="96 122 107 122 107 103 96 103"></polygon>
                <polygon id="Fill-110" fill="#EBB6B7" points="96 121 107 121 107 105 96 105"></polygon>
                <polygon id="Fill-111" fill="#EBAC9D" points="96 121 107 121 107 105 96 105"></polygon>
                <polygon id="Fill-112" fill="#172473" points="96 122 107 122 107 104 96 104"></polygon>
                <path d="M129,99 L104.437403,99 C102.546719,99 101,100.531237 101,102.402996 L101,124 L129,124 L129,99" id="Fill-113" fill="#4F5995"></path>
                <path d="M129,103 L106.425445,103 C104.541898,103 103,104.581568 103,106.515425 L103,125 L129,125 L129,103" id="Fill-114" fill="#4F5995"></path>
                <path d="M104,124 L104,107.766462 C104,106.245019 105.279754,105 106.843075,105 L129,105 L129,124 L104,124" id="Fill-115" fill="#FFFFFE"></path>
                <path d="M106,124 L110.387802,106.792872 C110.555891,106.13567 110.905042,105.521209 111.369261,105 L129,105 L129,124 L106,124" id="Fill-116" fill="#FFF3CE"></path>
                <path d="M129,104 L116.855788,104 C114.925202,104 112.949279,105.557064 112.46491,107.460394 L108,125 L129,125 L129,104" id="Fill-117" fill="#8289B4"></path>
                <polygon id="Fill-118" fill="#172473" points="118 121 129 121 129 99 118 99"></polygon>
                <polygon id="Fill-119" fill="#E07642" points="118 122 129 122 129 103 118 103"></polygon>
                <polygon id="Fill-120" fill="#EBB6B7" points="118 121 129 121 129 105 118 105"></polygon>
                <polygon id="Fill-121" fill="#EBAC9D" points="118 121 129 121 129 105 118 105"></polygon>
                <polygon id="Fill-122" fill="#172473" points="118 122 129 122 129 104 118 104"></polygon>
                <path d="M150,99 L125.437896,99 C123.546688,99 122,100.531237 122,102.402996 L122,124 L150,124 L150,99" id="Fill-123" fill="#4F5995"></path>
                <path d="M150,103 L127.426005,103 C125.541898,103 124,104.581568 124,106.515425 L124,125 L150,125 L150,103" id="Fill-124" fill="#4F5995"></path>
                <path d="M125,124 L125,107.766462 C125,106.245019 126.279184,105 127.843645,105 L150,105 L150,124 L125,124" id="Fill-125" fill="#FFFFFE"></path>
                <path d="M127,124 L131.388822,106.792872 C131.555779,106.13567 131.904922,105.521209 132.36913,105 L150,105 L150,124 L127,124" id="Fill-126" fill="#FFF3CE"></path>
                <path d="M150,104 L137.85612,104 C135.925587,104 133.949717,105.557064 133.465362,107.460394 L129,125 L150,125 L150,104" id="Fill-127" fill="#8289B4"></path>
                <polygon id="Fill-128" fill="#172473" points="139 121 150 121 150 99 139 99"></polygon>
                <polygon id="Fill-129" fill="#4F5995" points="139 122 150 122 150 103 139 103"></polygon>
                <polygon id="Fill-130" fill="#EBB6B7" points="139 121 150 121 150 105 139 105"></polygon>
                <polygon id="Fill-131" fill="#EBAC9D" points="139 121 150 121 150 105 139 105"></polygon>
                <polygon id="Fill-132" fill="#8289B4" points="139 122 150 122 150 104 139 104"></polygon>
                <path d="M145.41033,138 L186.590228,138 C188.465463,138 190,136.450185 190,134.556968 L190,102.994343 C190,101.1 188.465463,99.5513113 186.590228,99.5513113 L184.915732,99.5513113 L184.915732,97.9480159 C184.915732,97.4267198 184.493065,97 183.97672,97 L171.535373,97 C171.019586,97 170.597477,97.4267198 170.597477,97.9480159 L170.597477,99.5513113 L145.41033,99.5513113 C143.534537,99.5513113 142,101.100563 142,102.994343 L142,134.556968 C142,136.450185 143.534537,138 145.41033,138" id="Fill-133" fill="#8289B4"></path>
                <path d="M145.512118,138 L186.598012,138 C188.468966,138 190,136.460803 190,134.580555 L190,103.891097 C189.543805,103.661866 189.030308,103.532715 188.487882,103.532715 L186.817208,103.532715 L186.817208,101.940962 C186.817208,101.422678 186.396618,101 185.881452,101 L173.468507,101 C172.95334,101 172.532195,101.422678 172.532195,101.940962 L172.532195,103.532715 L147.402545,103.532715 C145.531034,103.532715 144,105.071353 144,106.952718 L144,137.641618 C144.456195,137.870848 144.970248,138 145.512118,138" id="Fill-134" fill="#172473"></path>
                <path d="M174.183317,137 L147.816118,137 C146.267366,137 145,135.75438 145,134.230967 L145,107.769033 C145,106.246176 146.267366,105 147.816118,105 L174.183317,105 C175.732069,105 177,106.246176 177,107.769033 L177,134.230967 C177,135.75438 175.732069,137 174.183317,137" id="Fill-135" fill="#FFFFFE"></path>
                <path d="M174.183317,137 L147.816118,137 C146.267366,137 145,135.75438 145,134.230967 L145,130.747452 L151.113642,106.794538 C151.281456,106.136726 151.631211,105.521694 152.096797,105 L174.183317,105 C175.732069,105 177,106.246176 177,107.769033 L177,134.230967 C177,135.75438 175.732069,137 174.183317,137" id="Fill-136" fill="#FFF3CE"></path>
                <path d="M149.670337,138 L187.833532,138 C189.716338,138 191.643919,136.450689 192.11574,134.558087 L198.894176,107.403781 C199.366557,105.510617 198.212471,103.961868 196.329106,103.961868 L194.323727,103.961868 L194.749653,102.25667 C194.921479,101.565586 194.50059,101 193.813288,101 L179.88366,101 C179.196357,101 178.493383,101.565586 178.319879,102.25667 L177.895072,103.961868 L158.166469,103.961868 C156.283104,103.961868 154.356642,105.510617 153.883702,107.403781 L147.105825,134.558087 C146.633445,136.450689 147.787531,138 149.670337,138" id="Fill-137" fill="#4F5995"></path>
                <path d="M190.305979,108.903568 L184.889239,130.60574 C184.416296,132.498905 182.489262,134.048216 180.606444,134.048216 L147.233437,134.048216 L147.105826,134.558087 C146.633443,136.450689 147.787536,138 149.670354,138 L187.833801,138 C189.716619,138 191.644213,136.450689 192.116037,134.558087 L198.893958,107.403781 C199.366901,105.510617 198.212808,103.961868 196.32943,103.961868 L194.324038,103.961868 L194.749967,102.25667 C194.921794,101.565586 194.500902,101 193.813595,101 L191.252425,101 C191.728727,101.625802 191.905591,102.494722 191.66772,103.451434 L190.305979,108.903568" id="Fill-138" fill="#8289B4"></path>
                <polygon id="Fill-139" fill="#FFFFFE" points="139 142 209 142 209 112 139 112"></polygon>
                <path d="M117.595405,142 L136.404595,142 C137.282354,142 138,142.674165 138,143.499357 L138,143.501285 C138,144.326478 137.282354,145 136.404595,145 L117.595405,145 C116.717646,145 116,144.326478 116,143.501285 L116,143.499357 C116,142.674165 116.717646,142 117.595405,142" id="Fill-140" fill="#1D1C40"></path>
                <path d="M93.3365488,142 L160.662893,142 C161.398414,142 162,142.385867 162,142.857816 L162,143 L92,143 L92,142.857816 C92,142.385867 92.6015865,142 93.3365488,142" id="Fill-141" fill="#1D1C40"></path>
                <path d="M140.336559,110 L207.663999,110 C208.398967,110 209,110.579049 209,111.286632 L209,111.499357 L184.736005,111.499357 L184.736005,111.5 C184.736005,112.32455 184.035078,113 183.178452,113 L164.822106,113 C163.966038,113 163.26567,112.32455 163.26567,111.5 L163.26567,111.499357 L139,111.499357 L139,111.286632 C139,110.579049 139.602149,110 140.336559,110" id="Fill-142" fill="#1D1C40"></path>
                <path d="M138,141.872226 L138,112 L91,112 L91,143 C91,142.379527 91.6026071,141.872226 92.3388163,141.872226 L116.838317,141.872226 C116.847261,141.871663 116.856764,141.871663 116.865708,141.871663 L135.253051,141.871663 C135.262554,141.871663 135.271498,141.871663 135.281001,141.872226 L138,141.872226" id="Fill-143" fill="#B7D2FB"></path>
                <path d="M61.0914859,109.235235 C53.1561341,100.242297 47.2529661,111.664996 48.0767796,123.132335 C48.8586013,134.004665 57.2785168,171.306573 55.7170835,187 L58.9410619,187 C66.8277916,166.875933 71.2501949,120.747779 61.0914859,109.235235" id="Fill-144" fill="#8EBAF8"></path>
                <path d="M57.0108138,187 C64.7843809,155.323544 54.9439055,111.536762 54.9103336,111.387782 C54.8504638,111.115779 54.6009129,110.94874 54.3530406,111.014201 C54.1051682,111.081355 53.9535353,111.355051 54.0128456,111.625925 C54.0464175,111.776034 63.8992025,155.611912 56.0663251,187 L57.0108138,187" id="Fill-145" fill="#2E7EF2"></path>
                <path d="M40.715442,128.237491 C32.3108614,123.321856 30.1918076,134.047031 33.4681225,142.920182 C36.1835767,150.273638 48.1787762,172.024772 52.7139734,186 L56.9859548,186 C57.349126,166.68725 50.6360124,134.039708 40.715442,128.237491" id="Fill-146" fill="#B7D2FB"></path>
                <path d="M56,187 C53.2608114,160.793845 37.7553403,132.30683 37.6995278,132.204542 C37.5917331,132.003921 37.3591812,131.940062 37.1813473,132.061564 C37.0035134,132.183067 36.9466066,132.444157 37.0549485,132.644212 C37.1102138,132.747066 52.5155507,161.048153 55.2514562,187 L56,187" id="Fill-147" fill="#4584B8"></path>
                <path d="M77.2423944,140.867189 C85.4168105,136.959676 86.7124351,147.066646 83.0807854,155.040259 C80.6243926,160.435574 71.7690074,174.249442 65.8063479,186 L59,186 C61.3276662,168.222581 68.7938075,144.907511 77.2423944,140.867189" id="Fill-148" fill="#B7D2FB"></path>
                <path d="M61,186 C66.8403122,164.503163 80.290864,144.245184 80.3447021,144.164085 C80.4607905,143.987904 80.6867983,143.947075 80.8488735,144.073478 C81.0109486,144.198762 81.0485231,144.443737 80.9329955,144.619917 C80.8791574,144.701576 67.5710522,164.748697 61.7436387,186 L61,186" id="Fill-149" fill="#8EBAF8"></path>
                <path d="M47.3242183,180 L71.6763484,180 C72.4050367,180 73,180.618899 73,181.376292 L73,187.623708 C73,188.381101 72.4050367,189 71.6763484,189 L47.3242183,189 C46.5955299,189 46,188.381101 46,187.623708 L46,181.376292 C46,180.618899 46.5955299,180 47.3242183,180" id="Fill-150" fill="#292756"></path>
                <polyline id="Fill-151" fill="#292756" points="52.1168067 185 67.8831933 185 72 189.011574 68.637085 203 51.362915 203 48 189.011574 52.1168067 185"></polyline>
                <polyline id="Fill-152" fill="#1D1C40" points="72 189 71.3086535 192 48.691905 192 48 189 72 189"></polyline>
                <path d="M198.825101,94 C198.391083,94.3388074 198.15599,94.5624802 198.15599,94.5624802 C198.15599,94.5624802 194.348729,94.1948892 193.194739,95.6028887 C192.04188,97.0108882 189.503894,100.43794 188.408678,100.988427 C187.312331,101.539513 188.523399,102.519356 190.830248,101.662444 C193.138227,100.804931 195.73329,98.7241141 195.73329,98.7241141 C195.73329,98.7241141 198.128299,99.3315688 200,98.1322506 C199.372709,96.6816754 198.897437,94.7513728 198.831317,94.260252 C198.819449,94.1751004 198.817754,94.0881499 198.825101,94" id="Fill-153" fill="#EBB6BF"></path>
            </g>
        </g>
    </g>
</svg>